<?xml version="1.0" standalone="no"?><!DOCTYPE svg PUBLIC "-//W3C//DTD SVG 1.1//EN" "http://www.w3.org/Graphics/SVG/1.1/DTD/svg11.dtd"><svg t="1694007047818" class="icon" viewBox="0 0 1024 1024" version="1.1" xmlns="http://www.w3.org/2000/svg" p-id="7395" xmlns:xlink="http://www.w3.org/1999/xlink" width="200" height="200"><path d="M408.26 135.88v272h-272v-272h272m0-72h-272a72 72 0 0 0-72 72v272a72 72 0 0 0 72 72h272a72 72 0 0 0 72-72v-272a72 72 0 0 0-72-72zM408.26 615.56v272h-272v-272h272m0-72h-272a72 72 0 0 0-72 72v272a72 72 0 0 0 72 72h272a72 72 0 0 0 72-72v-272a72 72 0 0 0-72-72zM888.11 615.56v272h-272v-272h272m0-72h-272a72 72 0 0 0-72 72v272a72 72 0 0 0 72 72h272a72 72 0 0 0 72-72v-272a72 72 0 0 0-72-72z" p-id="7396" fill="#d4237a"></path><path d="M544.11 64.22m36 0l344 0q36 0 36 36l0 0q0 36-36 36l-344 0q-36 0-36-36l0 0q0-36 36-36Z" p-id="7397" fill="#d4237a"></path><path d="M544.11 236.74m36 0l344 0q36 0 36 36l0 0q0 36-36 36l-344 0q-36 0-36-36l0 0q0-36 36-36Z" p-id="7398" fill="#d4237a"></path><path d="M544.11 409.26m36 0l344 0q36 0 36 36l0 0q0 36-36 36l-344 0q-36 0-36-36l0 0q0-36 36-36Z" p-id="7399" fill="#d4237a"></path></svg>