<?xml version="1.0" standalone="no"?><!DOCTYPE svg PUBLIC "-//W3C//DTD SVG 1.1//EN" "http://www.w3.org/Graphics/SVG/1.1/DTD/svg11.dtd"><svg t="1694007705139" class="icon" viewBox="0 0 1024 1024" version="1.1" xmlns="http://www.w3.org/2000/svg" p-id="27121" xmlns:xlink="http://www.w3.org/1999/xlink" width="200" height="200"><path d="M214.05184 483.44576C152.48896 483.44576 102.4 433.3568 102.4 371.79904V102.4h269.39904c61.56288 0 111.65184 50.08896 111.65184 111.65184v157.7472c0 61.56288-50.08896 111.65184-111.65184 111.65184h-157.7472z m-46.10048-111.64672c0 25.4208 20.67456 46.09536 46.09536 46.09536h157.7472c25.4208 0 46.09536-20.67456 46.09536-46.09536v-157.7472c0-25.4208-20.67456-46.09536-46.09536-46.09536H167.95136v203.84256zM652.20096 483.44576c-61.56288 0-111.65184-50.08896-111.65184-111.65184v-157.7472c0-61.56288 50.08896-111.65184 111.65184-111.65184H921.6v269.39904c0 61.56288-50.08896 111.65184-111.65184 111.65184h-157.7472z m0-315.4944c-25.4208 0-46.09536 20.67456-46.09536 46.09536v157.7472c0 25.4208 20.67456 46.09536 46.09536 46.09536h157.7472c25.4208 0 46.09536-20.67456 46.09536-46.09536V167.95136h-203.84256zM102.4 921.6v-269.39904c0-61.56288 50.08896-111.65184 111.65184-111.65184h157.7472c61.56288 0 111.65184 50.08896 111.65184 111.65184v157.7472c0 61.56288-50.08896 111.65184-111.65184 111.65184H102.4z m111.65184-315.4944c-25.4208 0-46.09536 20.67456-46.09536 46.09536v203.84256h203.84256c25.4208 0 46.09536-20.67456 46.09536-46.09536v-157.7472c0-25.4208-20.67456-46.09536-46.09536-46.09536h-157.7472zM652.20096 921.6c-61.56288 0-111.65184-50.08896-111.65184-111.65184v-157.7472c0-61.56288 50.08896-111.65184 111.65184-111.65184h157.7472c61.56288 0 111.65184 50.08896 111.65184 111.65184V921.6h-269.39904z m0-315.4944c-25.4208 0-46.09536 20.67456-46.09536 46.09536v157.7472c0 25.4208 20.67456 46.09536 46.09536 46.09536h203.84256v-203.84256c0-25.4208-20.67456-46.09536-46.09536-46.09536h-157.7472z" fill="#1afa29" p-id="27122"></path><path d="M369.23392 371.79392h-152.6272a2.56 2.56 0 0 1-2.56-2.56v-155.1872h155.1872a2.56 2.56 0 0 1 2.56 2.56v152.6272a2.56 2.56 0 0 1-2.56 2.56z" fill="#1afa29" opacity=".5" p-id="27123"></path></svg>