<?xml version="1.0" standalone="no"?><!DOCTYPE svg PUBLIC "-//W3C//DTD SVG 1.1//EN" "http://www.w3.org/Graphics/SVG/1.1/DTD/svg11.dtd"><svg t="1694008625500" class="icon" viewBox="0 0 1024 1024" version="1.1" xmlns="http://www.w3.org/2000/svg" p-id="30833" xmlns:xlink="http://www.w3.org/1999/xlink" width="200" height="200"><path d="M924 0H100C45 0 0 45 0 100v824c0 55 45 100 100 100h824c55 0 100-45 100-100V100c0-55-45-100-100-100z m55 924c0 14.58-5.75 28.36-16.19 38.81S938.58 979 924 979H100c-14.58 0-28.36-5.75-38.81-16.19S45 938.58 45 924V315h934v609zM45 270V100c0-14.58 5.75-28.36 16.19-38.81C71.64 50.75 85.42 45 100 45h824c14.58 0 28.36 5.75 38.81 16.19C973.25 71.64 979 85.42 979 100v170H45z" fill="#1296db" p-id="30834"></path><path d="M157.5 157.5m-22.5 0a22.5 22.5 0 1 0 45 0 22.5 22.5 0 1 0-45 0Z" fill="#1296db" p-id="30835"></path><path d="M292.5 157.5m-22.5 0a22.5 22.5 0 1 0 45 0 22.5 22.5 0 1 0-45 0Z" fill="#1296db" p-id="30836"></path><path d="M427.5 157.5m-22.5 0a22.5 22.5 0 1 0 45 0 22.5 22.5 0 1 0-45 0Z" fill="#1296db" p-id="30837"></path><path d="M262.55 660.86v-31.03l171.77-59.07v36.1L364 628.35l-51.23 16.11v1.49L364 662.06l70.32 21.48v36.4l-171.77-59.08zM534.77 517.37h32.81l-83.04 294.45h-32.81l83.04-294.45zM589.68 683.54l70.65-21.48 51.23-16.11v-1.49l-51.23-16.11-70.65-21.48v-36.1l171.77 59.07v31.03l-171.77 59.07v-36.4z" fill="#1296db" p-id="30838"></path></svg>